<svg xmlns="http://www.w3.org/2000/svg" viewBox="0 0 100 100">
  <!-- Фон -->
  <rect width="100" height="100" fill="#8BC34A" rx="20"/>
  
  <!-- Яблоко (символ здорового питания) -->
  <path d="M 50 25 Q 40 25 35 35 Q 30 45 30 55 Q 30 70 40 78 Q 45 82 50 82 Q 55 82 60 78 Q 70 70 70 55 Q 70 45 65 35 Q 60 25 50 25 Z" 
        fill="#FFFFFF" 
        opacity="0.95"/>
  
  <!-- Листик сверху -->
  <path d="M 50 18 Q 48 20 47 23 Q 50 22 53 23 Q 52 20 50 18 Z" 
        fill="#FFFFFF" 
        opacity="0.9"/>
  
  <!-- Сердечко внутри яблока (символ любви к себе) -->
  <path d="M 50 48 L 46 44 Q 44 42 44 45 Q 44 47 46 49 L 50 53 L 54 49 Q 56 47 56 45 Q 56 42 54 44 Z" 
        fill="#8BC34A"/>
</svg>

